<svg xmlns="http://www.w3.org/2000/svg" width="800" height="800" viewBox="0 0 800 800">
  <g fill="none" stroke="black" stroke-width="1.6" stroke-linecap="round" stroke-linejoin="round">
    <line x1="760" y1="400" x2="100" y2="600" />
    <line x1="710" y1="580" x2="52" y2="498" />
    <line x1="574" y1="714" x2="288" y2="56" />
    <line x1="400" y1="760" x2="198" y2="100" />
    <line x1="220" y1="710" x2="300" y2="52" />
    <line x1="88" y1="580" x2="760" y2="400" />
    <line x1="40" y1="400" x2="760" y2="400" />
    <line x1="88" y1="218" x2="760" y2="400" />
    <line x1="224" y1="84" x2="510" y2="742" />
    <line x1="406" y1="40" x2="600" y2="698" />
    <line x1="584" y1="90" x2="486" y2="748" />
    <line x1="714" y1="224" x2="56" y2="510" />
    <line x1="760" y1="400" x2="98" y2="596" />
    <line x1="710" y1="580" x2="52" y2="492" />
    <line x1="574" y1="714" x2="294" y2="54" />
    <line x1="400" y1="760" x2="202" y2="98" />
    <line x1="220" y1="710" x2="306" y2="52" />
    <line x1="88" y1="580" x2="758" y2="406" />
    <line x1="40" y1="400" x2="758" y2="406" />
    <line x1="88" y1="218" x2="758" y2="406" />
    <line x1="224" y1="84" x2="504" y2="744" />
    <line x1="406" y1="40" x2="596" y2="700" />
    <line x1="584" y1="90" x2="480" y2="750" />
    <line x1="714" y1="224" x2="54" y2="504" />
    <line x1="752" y1="474" x2="46" y2="468" />
    <line x1="748" y1="486" x2="44" y2="456" />
    <line x1="324" y1="46" x2="474" y2="752" />
    <line x1="456" y1="754" x2="312" y2="50" />
    <line x1="330" y1="46" x2="468" y2="752" />
    <line x1="424" y1="40" x2="294" y2="744" />
    <line x1="756" y1="450" x2="50" y2="486" />
    <line x1="436" y1="40" x2="288" y2="742" />
    <line x1="424" y1="758" x2="368" y2="40" />
    <line x1="442" y1="756" x2="336" y2="44" />
    <line x1="462" y1="754" x2="306" y2="52" />
    <line x1="374" y1="40" x2="324" y2="752" />
    <line x1="418" y1="40" x2="300" y2="746" />
    <line x1="318" y1="48" x2="480" y2="750" />
    <line x1="436" y1="758" x2="342" y2="44" />
    <line x1="380" y1="40" x2="318" y2="750" />
    <line x1="450" y1="756" x2="312" y2="50" />
    <line x1="758" y1="418" x2="56" y2="510" />
    <line x1="294" y1="744" x2="406" y2="40" />
    <line x1="412" y1="40" x2="312" y2="748" />
    <line x1="306" y1="746" x2="386" y2="40" />
    <line x1="368" y1="40" x2="418" y2="758" />
    <line x1="336" y1="44" x2="456" y2="754" />
    <line x1="330" y1="46" x2="474" y2="752" />
    <line x1="430" y1="758" x2="362" y2="40" />
    <line x1="374" y1="40" x2="424" y2="758" />
    <line x1="462" y1="754" x2="300" y2="52" />
    <line x1="300" y1="746" x2="398" y2="40" />
    <line x1="324" y1="752" x2="380" y2="40" />
    <line x1="348" y1="42" x2="450" y2="756" />
    <line x1="744" y1="504" x2="40" y2="436" />
    <line x1="436" y1="40" x2="294" y2="744" />
    <line x1="392" y1="40" x2="312" y2="748" />
    <line x1="406" y1="40" x2="306" y2="746" />
    <line x1="406" y1="758" x2="368" y2="40" />
    <line x1="342" y1="44" x2="456" y2="754" />
    <line x1="288" y1="742" x2="412" y2="40" />
    <line x1="324" y1="46" x2="480" y2="750" />
    <line x1="424" y1="758" x2="362" y2="40" />
    <line x1="318" y1="750" x2="374" y2="40" />
    <line x1="300" y1="746" x2="386" y2="40" />
    <line x1="336" y1="44" x2="462" y2="754" />
    <line x1="436" y1="758" x2="348" y2="42" />
    <line x1="380" y1="40" x2="400" y2="760" />
    <line x1="294" y1="744" x2="398" y2="40" />
    <line x1="430" y1="758" x2="356" y2="42" />
    <line x1="40" y1="430" x2="746" y2="498" />
    <line x1="368" y1="40" x2="342" y2="754" />
    <line x1="456" y1="754" x2="318" y2="48" />
    <line x1="288" y1="742" x2="406" y2="40" />
    <line x1="450" y1="756" x2="324" y2="46" />
    <line x1="758" y1="424" x2="54" y2="504" />
    <line x1="442" y1="756" x2="342" y2="44" />
    <line x1="412" y1="40" x2="300" y2="746" />
    <line x1="330" y1="46" x2="462" y2="754" />
    <line x1="386" y1="40" x2="330" y2="752" />
    <line x1="306" y1="746" x2="392" y2="40" />
    <line x1="430" y1="40" x2="294" y2="744" />
    <line x1="430" y1="758" x2="336" y2="44" />
    <line x1="398" y1="40" x2="312" y2="748" />
    <line x1="40" y1="406" x2="744" y2="504" />
    <line x1="380" y1="40" x2="424" y2="758" />
    <line x1="742" y1="510" x2="40" y2="430" />
    <line x1="356" y1="42" x2="436" y2="758" />
    <line x1="456" y1="754" x2="306" y2="52" />
    <line x1="50" y1="486" x2="758" y2="412" />
    <line x1="342" y1="44" x2="450" y2="756" />
    <line x1="54" y1="504" x2="758" y2="392" />
    <line x1="392" y1="758" x2="386" y2="40" />
    <line x1="424" y1="40" x2="306" y2="746" />
    <line x1="754" y1="456" x2="48" y2="480" />
    <line x1="294" y1="744" x2="392" y2="40" />
    <line x1="336" y1="44" x2="468" y2="752" />
    <line x1="288" y1="742" x2="398" y2="40" />
    <line x1="368" y1="40" x2="430" y2="758" />
    <line x1="318" y1="750" x2="380" y2="40" />
    <line x1="42" y1="450" x2="754" y2="462" />
    <line x1="412" y1="758" x2="356" y2="42" />
    <line x1="348" y1="42" x2="456" y2="754" />
    <line x1="46" y1="468" x2="758" y2="436" />
    <line x1="362" y1="40" x2="348" y2="756" />
    <line x1="40" y1="436" x2="746" y2="498" />
    <line x1="758" y1="430" x2="52" y2="498" />
    <line x1="42" y1="450" x2="756" y2="450" />
    <line x1="300" y1="746" x2="392" y2="40" />
    <line x1="412" y1="40" x2="306" y2="746" />
    <line x1="398" y1="40" x2="324" y2="752" />
    <line x1="368" y1="40" x2="424" y2="758" />
    <line x1="374" y1="40" x2="318" y2="750" />
    <line x1="40" y1="430" x2="746" y2="492" />
    <line x1="436" y1="758" x2="330" y2="46" />
    <line x1="348" y1="42" x2="442" y2="756" />
    <line x1="418" y1="758" x2="356" y2="42" />
    <line x1="54" y1="504" x2="760" y2="400" />
    <line x1="456" y1="754" x2="300" y2="52" />
    <line x1="44" y1="462" x2="754" y2="456" />
    <line x1="330" y1="752" x2="380" y2="40" />
    <line x1="430" y1="40" x2="300" y2="746" />
    <line x1="742" y1="510" x2="40" y2="436" />
    <line x1="746" y1="498" x2="42" y2="442" />
    <line x1="336" y1="754" x2="368" y2="40" />
    <line x1="342" y1="44" x2="462" y2="754" />
    <line x1="374" y1="40" x2="430" y2="758" />
    <line x1="398" y1="40" x2="306" y2="746" />
    <line x1="362" y1="40" x2="424" y2="758" />
    <line x1="450" y1="756" x2="330" y2="46" />
    <line x1="46" y1="468" x2="758" y2="430" />
    <line x1="386" y1="40" x2="318" y2="750" />
    <line x1="40" y1="424" x2="748" y2="486" />
    <line x1="746" y1="492" x2="42" y2="450" />
    <line x1="356" y1="42" x2="356" y2="756" />
    <line x1="442" y1="756" x2="318" y2="48" />
    <line x1="336" y1="44" x2="474" y2="752" />
    <line x1="288" y1="742" x2="392" y2="40" />
    <line x1="368" y1="40" x2="348" y2="756" />
    <line x1="300" y1="746" x2="380" y2="40" />
    <line x1="380" y1="758" x2="398" y2="40" />
    <line x1="324" y1="752" x2="362" y2="40" />
    <line x1="756" y1="442" x2="52" y2="492" />
    <line x1="312" y1="748" x2="374" y2="40" />
    <line x1="442" y1="42" x2="294" y2="744" />
    <line x1="50" y1="486" x2="758" y2="418" />
    <line x1="368" y1="758" x2="406" y2="40" />
    <line x1="40" y1="430" x2="752" y2="474" />
    <line x1="356" y1="42" x2="442" y2="756" />
    <line x1="40" y1="418" x2="746" y2="498" />
    <line x1="330" y1="46" x2="480" y2="750" />
    <line x1="318" y1="750" x2="368" y2="40" />
    <line x1="306" y1="746" x2="380" y2="40" />
    <line x1="398" y1="40" x2="386" y2="758" />
    <line x1="362" y1="40" x2="356" y2="756" />
    <line x1="44" y1="462" x2="756" y2="450" />
    <line x1="758" y1="430" x2="54" y2="504" />
    <line x1="418" y1="758" x2="374" y2="40" />
    <line x1="294" y1="744" x2="386" y2="40" />
    <line x1="52" y1="492" x2="758" y2="424" />
    <line x1="40" y1="424" x2="744" y2="504" />
    <line x1="356" y1="42" x2="450" y2="756" />
    <line x1="430" y1="758" x2="348" y2="42" />
    <line x1="424" y1="758" x2="336" y2="44" />
    <line x1="400" y1="760" x2="368" y2="40" />
    <line x1="412" y1="40" x2="318" y2="750" />
    <line x1="342" y1="44" x2="468" y2="752" />
    <line x1="362" y1="40" x2="442" y2="756" />
    <line x1="380" y1="40" x2="324" y2="752" />
    <line x1="418" y1="40" x2="306" y2="746" />
    <line x1="54" y1="504" x2="758" y2="412" />
    <line x1="312" y1="748" x2="386" y2="40" />
    <line x1="46" y1="474" x2="758" y2="436" />
    <line x1="40" y1="418" x2="744" y2="504" />
    <line x1="52" y1="498" x2="758" y2="424" />
    <line x1="42" y1="450" x2="752" y2="474" />
    <line x1="40" y1="400" x2="742" y2="510" />
    <line x1="386" y1="758" x2="392" y2="40" />
    <line x1="368" y1="40" x2="436" y2="758" />
    <line x1="424" y1="758" x2="374" y2="40" />
    <line x1="412" y1="758" x2="362" y2="40" />
    <line x1="380" y1="40" x2="342" y2="754" />
    <line x1="342" y1="44" x2="368" y2="758" />
    <line x1="758" y1="430" x2="52" y2="492" />
    <line x1="348" y1="42" x2="462" y2="754" />
    <line x1="324" y1="752" x2="356" y2="42" />
    <line x1="386" y1="40" x2="400" y2="760" />
    <line x1="436" y1="40" x2="300" y2="746" />
    <line x1="442" y1="756" x2="324" y2="46" />
    <line x1="48" y1="480" x2="758" y2="436" />
    <line x1="44" y1="456" x2="756" y2="450" />
    <line x1="312" y1="748" x2="368" y2="40" />
    <line x1="374" y1="40" x2="418" y2="758" />
    <line x1="306" y1="746" x2="398" y2="40" />
    <line x1="450" y1="756" x2="306" y2="52" />
    <line x1="380" y1="40" x2="336" y2="754" />
    <line x1="342" y1="754" x2="362" y2="40" />
    <line x1="356" y1="756" x2="418" y2="40" />
    <line x1="758" y1="424" x2="50" y2="486" />
    <line x1="424" y1="758" x2="356" y2="42" />
    <line x1="754" y1="456" x2="42" y2="450" />
    <line x1="40" y1="436" x2="742" y2="510" />
    <line x1="324" y1="46" x2="486" y2="748" />
    <line x1="392" y1="40" x2="318" y2="750" />
    <line x1="368" y1="40" x2="442" y2="756" />
    <line x1="300" y1="746" x2="374" y2="40" />
    <line x1="368" y1="758" x2="398" y2="40" />
    <line x1="52" y1="498" x2="758" y2="430" />
    <line x1="386" y1="758" x2="386" y2="40" />
    <line x1="362" y1="40" x2="330" y2="752" />
    <line x1="418" y1="758" x2="380" y2="40" />
    <line x1="40" y1="430" x2="744" y2="504" />
    <line x1="424" y1="758" x2="342" y2="44" />
    <line x1="746" y1="492" x2="40" y2="424" />
    <line x1="356" y1="42" x2="362" y2="758" />
    <line x1="758" y1="424" x2="56" y2="510" />
    <line x1="52" y1="492" x2="760" y2="400" />
    <line x1="406" y1="40" x2="318" y2="750" />
    <line x1="306" y1="746" x2="374" y2="40" />
    <line x1="392" y1="40" x2="324" y2="752" />
    <line x1="46" y1="474" x2="754" y2="462" />
    <line x1="288" y1="742" x2="386" y2="40" />
    <line x1="398" y1="40" x2="330" y2="752" />
    <line x1="430" y1="758" x2="330" y2="46" />
    <line x1="362" y1="40" x2="450" y2="756" />
    <line x1="756" y1="450" x2="42" y2="450" />
    <line x1="380" y1="40" x2="406" y2="758" />
    <line x1="436" y1="758" x2="356" y2="42" />
    <line x1="40" y1="436" x2="744" y2="504" />
    <line x1="336" y1="754" x2="348" y2="42" />
    <line x1="52" y1="498" x2="758" y2="418" />
    <line x1="746" y1="498" x2="40" y2="430" />
    <line x1="392" y1="40" x2="418" y2="758" />
    <line x1="392" y1="758" x2="374" y2="40" />
    <line x1="754" y1="462" x2="44" y2="456" />
    <line x1="368" y1="40" x2="330" y2="752" />
    <line x1="418" y1="40" x2="312" y2="748" />
    <line x1="318" y1="750" x2="362" y2="40" />
    <line x1="46" y1="474" x2="756" y2="450" />
    <line x1="294" y1="744" x2="380" y2="40" />
    <line x1="430" y1="40" x2="306" y2="746" />
    <line x1="380" y1="758" x2="386" y2="40" />
    <line x1="58" y1="516" x2="760" y2="400" />
    <line x1="758" y1="412" x2="52" y2="498" />
    <line x1="356" y1="42" x2="368" y2="758" />
    <line x1="40" y1="424" x2="746" y2="498" />
    <line x1="374" y1="40" x2="436" y2="758" />
    <line x1="758" y1="436" x2="46" y2="468" />
    <line x1="412" y1="758" x2="392" y2="40" />
    <line x1="324" y1="752" x2="348" y2="42" />
    <line x1="362" y1="40" x2="430" y2="758" />
    <line x1="44" y1="462" x2="752" y2="474" />
    <line x1="40" y1="418" x2="746" y2="492" />
    <line x1="306" y1="746" x2="368" y2="40" />
    <line x1="374" y1="758" x2="386" y2="40" />
    <line x1="312" y1="748" x2="380" y2="40" />
    <line x1="336" y1="44" x2="386" y2="758" />
    <line x1="356" y1="42" x2="456" y2="754" />
    <line x1="356" y1="756" x2="430" y2="40" />
    <line x1="746" y1="498" x2="40" y2="436" />
    <line x1="392" y1="758" x2="318" y2="48" />
    <line x1="380" y1="758" x2="392" y2="40" />
    <line x1="758" y1="436" x2="52" y2="498" />
    <line x1="362" y1="40" x2="436" y2="758" />
    <line x1="456" y1="44" x2="342" y2="754" />
    <line x1="424" y1="758" x2="330" y2="46" />
    <line x1="758" y1="430" x2="46" y2="468" />
    <line x1="374" y1="758" x2="324" y2="46" />
    <line x1="348" y1="42" x2="468" y2="752" />
    <line x1="380" y1="40" x2="430" y2="758" />
    <line x1="386" y1="40" x2="336" y2="754" />
    <line x1="330" y1="752" x2="356" y2="42" />
    <line x1="56" y1="510" x2="758" y2="418" />
    <line x1="46" y1="474" x2="754" y2="456" />
    <line x1="744" y1="504" x2="40" y2="430" />
    <line x1="758" y1="424" x2="52" y2="498" />
    <line x1="312" y1="748" x2="362" y2="40" />
    <line x1="336" y1="44" x2="380" y2="758" />
    <line x1="442" y1="756" x2="330" y2="46" />
    <line x1="752" y1="468" x2="42" y2="450" />
    <line x1="436" y1="758" x2="324" y2="46" />
    <line x1="342" y1="754" x2="348" y2="42" />
    <line x1="368" y1="40" x2="362" y2="758" />
    <line x1="386" y1="40" x2="424" y2="758" />
    <line x1="412" y1="758" x2="380" y2="40" />
    <line x1="56" y1="510" x2="758" y2="386" />
    <line x1="46" y1="474" x2="756" y2="442" />
    <line x1="40" y1="418" x2="742" y2="510" />
    <line x1="330" y1="752" x2="374" y2="40" />
    <line x1="50" y1="486" x2="752" y2="474" />
    <line x1="758" y1="418" x2="54" y2="504" />
    <line x1="442" y1="756" x2="312" y2="50" />
    <line x1="356" y1="42" x2="430" y2="758" />
    <line x1="324" y1="46" x2="468" y2="752" />
    <line x1="348" y1="756" x2="348" y2="42" />
    <line x1="300" y1="746" x2="368" y2="40" />
    <line x1="412" y1="40" x2="324" y2="752" />
    <line x1="386" y1="40" x2="342" y2="754" />
    <line x1="386" y1="758" x2="380" y2="40" />
    <line x1="56" y1="510" x2="760" y2="400" />
    <line x1="392" y1="40" x2="424" y2="758" />
    <line x1="756" y1="450" x2="48" y2="480" />
    <line x1="742" y1="510" x2="40" y2="424" />
    <line x1="54" y1="504" x2="758" y2="386" />
    <line x1="374" y1="40" x2="442" y2="756" />
    <line x1="752" y1="474" x2="44" y2="456" />
    <line x1="312" y1="50" x2="412" y2="758" />
    <line x1="40" y1="436" x2="752" y2="468" />
    <line x1="418" y1="758" x2="342" y2="44" />
    <line x1="368" y1="40" x2="450" y2="756" />
    <line x1="312" y1="748" x2="356" y2="42" />
    <line x1="318" y1="750" x2="386" y2="40" />
    <line x1="342" y1="754" x2="336" y2="44" />
    <line x1="392" y1="40" x2="330" y2="752" />
    <line x1="424" y1="758" x2="348" y2="42" />
    <line x1="288" y1="742" x2="380" y2="40" />
    <line x1="406" y1="40" x2="406" y2="758" />
    <line x1="758" y1="412" x2="56" y2="510" />
    <line x1="40" y1="430" x2="742" y2="510" />
    <line x1="424" y1="40" x2="300" y2="746" />
    <line x1="758" y1="406" x2="54" y2="504" />
    <line x1="342" y1="44" x2="474" y2="752" />
    <line x1="386" y1="758" x2="368" y2="40" />
    <line x1="462" y1="44" x2="336" y2="754" />
    <line x1="324" y1="752" x2="442" y2="42" />
    <line x1="386" y1="40" x2="312" y2="748" />
    <line x1="398" y1="40" x2="418" y2="758" />
    <line x1="48" y1="480" x2="750" y2="480" />
    <line x1="318" y1="750" x2="356" y2="42" />
    <line x1="380" y1="40" x2="412" y2="758" />
    <line x1="330" y1="752" x2="348" y2="42" />
    <line x1="742" y1="510" x2="40" y2="406" />
    <line x1="348" y1="756" x2="424" y2="40" />
    <line x1="374" y1="758" x2="392" y2="40" />
    <line x1="406" y1="758" x2="306" y2="52" />
    <line x1="756" y1="442" x2="52" y2="498" />
    <line x1="430" y1="40" x2="356" y2="756" />
    <line x1="300" y1="746" x2="406" y2="40" />
    <line x1="342" y1="44" x2="386" y2="758" />
    <line x1="398" y1="40" x2="336" y2="754" />
    <line x1="450" y1="756" x2="318" y2="48" />
    <line x1="336" y1="44" x2="480" y2="750" />
    <line x1="356" y1="42" x2="462" y2="754" />
    <line x1="294" y1="744" x2="374" y2="40" />
    <line x1="418" y1="758" x2="348" y2="42" />
    <line x1="380" y1="40" x2="436" y2="758" />
    <line x1="400" y1="760" x2="300" y2="52" />
    <line x1="412" y1="40" x2="406" y2="758" />
    <line x1="312" y1="748" x2="392" y2="40" />
    <line x1="356" y1="756" x2="424" y2="40" />
    <line x1="406" y1="40" x2="300" y2="746" />
    <line x1="46" y1="468" x2="752" y2="474" />
    <line x1="362" y1="758" x2="398" y2="40" />
    <line x1="754" y1="462" x2="52" y2="498" />
    <line x1="342" y1="44" x2="380" y2="758" />
    <line x1="748" y1="486" x2="42" y2="442" />
    <line x1="336" y1="754" x2="336" y2="44" />
    <line x1="318" y1="750" x2="348" y2="42" />
    <line x1="386" y1="40" x2="418" y2="758" />
    <line x1="400" y1="760" x2="374" y2="40" />
    <line x1="330" y1="46" x2="386" y2="758" />
    <line x1="756" y1="450" x2="44" y2="456" />
    <line x1="424" y1="40" x2="312" y2="748" />
    <line x1="418" y1="40" x2="294" y2="744" />
    <line x1="392" y1="40" x2="406" y2="758" />
    <line x1="362" y1="40" x2="456" y2="754" />
    <line x1="398" y1="40" x2="392" y2="758" />
    <line x1="412" y1="758" x2="342" y2="44" />
    <line x1="374" y1="758" x2="412" y2="40" />
    <line x1="336" y1="44" x2="368" y2="758" />
    <line x1="348" y1="42" x2="380" y2="758" />
    <line x1="50" y1="486" x2="752" y2="468" />
    <line x1="386" y1="40" x2="430" y2="758" />
    <line x1="336" y1="754" x2="330" y2="46" />
    <line x1="430" y1="40" x2="288" y2="742" />
    <line x1="312" y1="748" x2="456" y2="44" />
    <line x1="436" y1="758" x2="368" y2="40" />
    <line x1="362" y1="758" x2="392" y2="40" />
    <line x1="306" y1="746" x2="362" y2="40" />
    <line x1="406" y1="758" x2="398" y2="40" />
    <line x1="318" y1="48" x2="474" y2="752" />
    <line x1="406" y1="40" x2="324" y2="752" />
    <line x1="42" y1="450" x2="754" y2="456" />
    <line x1="412" y1="758" x2="348" y2="42" />
    <line x1="348" y1="756" x2="342" y2="44" />
    <line x1="374" y1="40" x2="342" y2="754" />
    <line x1="418" y1="40" x2="380" y2="758" />
    <line x1="330" y1="46" x2="486" y2="748" />
    <line x1="294" y1="744" x2="412" y2="40" />
    <line x1="436" y1="758" x2="336" y2="44" />
    <line x1="392" y1="40" x2="430" y2="758" />
    <line x1="306" y1="746" x2="356" y2="42" />
    <line x1="380" y1="40" x2="418" y2="758" />
    <line x1="450" y1="756" x2="362" y2="40" />
    <line x1="406" y1="40" x2="312" y2="748" />
    <line x1="386" y1="40" x2="406" y2="758" />
    <line x1="398" y1="40" x2="412" y2="758" />
    <line x1="430" y1="40" x2="348" y2="756" />
    <line x1="324" y1="752" x2="342" y2="44" />
    <line x1="380" y1="758" x2="374" y2="40" />
    <line x1="752" y1="474" x2="50" y2="486" />
    <line x1="56" y1="510" x2="758" y2="412" />
    <line x1="442" y1="756" x2="348" y2="42" />
    <line x1="392" y1="40" x2="342" y2="754" />
    <line x1="288" y1="742" x2="418" y2="40" />
    <line x1="356" y1="42" x2="424" y2="758" />
    <line x1="436" y1="758" x2="362" y2="40" />
    <line x1="758" y1="392" x2="58" y2="516" />
    <line x1="324" y1="46" x2="400" y2="760" />
    <line x1="374" y1="758" x2="406" y2="40" />
    <line x1="348" y1="756" x2="330" y2="46" />
    <line x1="342" y1="44" x2="392" y2="758" />
    <line x1="380" y1="758" x2="380" y2="40" />
    <line x1="52" y1="498" x2="752" y2="468" />
    <line x1="760" y1="400" x2="60" y2="522" />
    <line x1="362" y1="758" x2="336" y2="44" />
    <line x1="324" y1="752" x2="412" y2="40" />
    <line x1="348" y1="42" x2="430" y2="758" />
    <line x1="46" y1="474" x2="746" y2="492" />
    <line x1="442" y1="756" x2="362" y2="40" />
    <line x1="450" y1="42" x2="288" y2="742" />
    <line x1="40" y1="424" x2="740" y2="516" />
    <line x1="56" y1="510" x2="758" y2="380" />
    <line x1="758" y1="386" x2="58" y2="516" />
    <line x1="318" y1="48" x2="392" y2="758" />
    <line x1="374" y1="40" x2="348" y2="756" />
    <line x1="752" y1="474" x2="52" y2="498" />
    <line x1="336" y1="754" x2="342" y2="44" />
    <line x1="744" y1="504" x2="44" y2="462" />
    <line x1="324" y1="752" x2="398" y2="40" />
    <line x1="430" y1="758" x2="324" y2="46" />
    <line x1="46" y1="474" x2="750" y2="480" />
    <line x1="754" y1="456" x2="54" y2="504" />
    <line x1="46" y1="468" x2="746" y2="498" />
    <line x1="40" y1="392" x2="740" y2="516" />
    <line x1="348" y1="42" x2="436" y2="758" />
    <line x1="450" y1="756" x2="368" y2="40" />
    <line x1="392" y1="758" x2="380" y2="40" />
    <line x1="368" y1="758" x2="386" y2="40" />
    <line x1="752" y1="474" x2="52" y2="492" />
    <line x1="282" y1="740" x2="412" y2="40" />
    <line x1="400" y1="760" x2="362" y2="40" />
    <line x1="342" y1="44" x2="362" y2="758" />
    <line x1="58" y1="516" x2="758" y2="406" />
    <line x1="450" y1="42" x2="348" y2="756" />
    <line x1="54" y1="504" x2="756" y2="450" />
    <line x1="758" y1="386" x2="56" y2="510" />
    <line x1="40" y1="400" x2="740" y2="516" />
    <line x1="380" y1="758" x2="312" y2="50" />
    <line x1="746" y1="498" x2="46" y2="474" />
    <line x1="398" y1="40" x2="318" y2="750" />
    <line x1="324" y1="752" x2="392" y2="40" />
    <line x1="348" y1="42" x2="424" y2="758" />
    <line x1="442" y1="756" x2="368" y2="40" />
    <line x1="52" y1="498" x2="752" y2="474" />
    <line x1="356" y1="756" x2="406" y2="40" />
    <line x1="760" y1="400" x2="58" y2="516" />
    <line x1="362" y1="40" x2="368" y2="758" />
    <line x1="306" y1="52" x2="418" y2="758" />
    <line x1="424" y1="40" x2="348" y2="756" />
    <line x1="40" y1="412" x2="740" y2="516" />
    <line x1="754" y1="462" x2="54" y2="504" />
    <line x1="756" y1="450" x2="56" y2="510" />
    <line x1="318" y1="750" x2="412" y2="40" />
    <line x1="392" y1="40" x2="400" y2="760" />
    <line x1="330" y1="752" x2="336" y2="44" />
    <line x1="348" y1="42" x2="362" y2="758" />
    <line x1="356" y1="42" x2="386" y2="758" />
    <line x1="442" y1="756" x2="374" y2="40" />
    <line x1="758" y1="374" x2="58" y2="516" />
    <line x1="300" y1="746" x2="362" y2="40" />
    <line x1="442" y1="42" x2="288" y2="742" />
    <line x1="282" y1="740" x2="386" y2="40" />
    <line x1="468" y1="752" x2="300" y2="52" />
    <line x1="342" y1="754" x2="342" y2="44" />
    <line x1="462" y1="754" x2="294" y2="54" />
    <line x1="380" y1="758" x2="318" y2="48" />
    <line x1="436" y1="40" x2="348" y2="756" />
    <line x1="324" y1="752" x2="336" y2="44" />
    <line x1="48" y1="480" x2="748" y2="486" />
    <line x1="348" y1="42" x2="418" y2="758" />
    <line x1="374" y1="40" x2="450" y2="756" />
    <line x1="392" y1="758" x2="312" y2="50" />
    <line x1="46" y1="474" x2="746" y2="498" />
    <line x1="398" y1="40" x2="400" y2="760" />
    <line x1="318" y1="750" x2="392" y2="40" />
    <line x1="58" y1="516" x2="758" y2="380" />
    <line x1="336" y1="754" x2="462" y2="44" />
    <line x1="342" y1="754" x2="324" y2="46" />
    <line x1="282" y1="740" x2="406" y2="40" />
    <line x1="40" y1="412" x2="742" y2="510" />
    <line x1="342" y1="44" x2="436" y2="758" />
    <line x1="386" y1="40" x2="412" y2="758" />
    <line x1="362" y1="40" x2="374" y2="758" />
    <line x1="368" y1="40" x2="300" y2="746" />
    <line x1="318" y1="48" x2="486" y2="748" />
    <line x1="450" y1="756" x2="336" y2="44" />
    <line x1="348" y1="42" x2="368" y2="758" />
    <line x1="456" y1="44" x2="312" y2="748" />
    <line x1="44" y1="462" x2="744" y2="504" />
    <line x1="392" y1="40" x2="336" y2="754" />
    <line x1="400" y1="760" x2="356" y2="42" />
    <line x1="348" y1="756" x2="324" y2="46" />
    <line x1="282" y1="740" x2="418" y2="40" />
    <line x1="758" y1="412" x2="58" y2="516" />
    <line x1="362" y1="758" x2="386" y2="40" />
    <line x1="430" y1="758" x2="342" y2="44" />
    <line x1="752" y1="468" x2="50" y2="486" />
    <line x1="54" y1="504" x2="754" y2="462" />
    <line x1="336" y1="44" x2="436" y2="758" />
    <line x1="398" y1="40" x2="342" y2="754" />
    <line x1="318" y1="750" x2="442" y2="42" />
    <line x1="312" y1="748" x2="468" y2="46" />
    <line x1="450" y1="756" x2="348" y2="42" />
    <line x1="380" y1="40" x2="442" y2="756" />
    <line x1="400" y1="760" x2="294" y2="54" />
    <line x1="288" y1="742" x2="374" y2="40" />
    <line x1="368" y1="758" x2="418" y2="40" />
    <line x1="348" y1="756" x2="318" y2="48" />
    <line x1="342" y1="44" x2="424" y2="758" />
    <line x1="58" y1="516" x2="758" y2="392" />
    <line x1="392" y1="40" x2="412" y2="758" />
    <line x1="336" y1="44" x2="430" y2="758" />
    <line x1="456" y1="754" x2="362" y2="40" />
    <line x1="282" y1="740" x2="398" y2="40" />
    <line x1="418" y1="758" x2="386" y2="40" />
    <line x1="450" y1="756" x2="356" y2="42" />
    <line x1="324" y1="46" x2="492" y2="746" />
    <line x1="380" y1="40" x2="312" y2="748" />
    <line x1="374" y1="40" x2="356" y2="756" />
    <line x1="406" y1="40" x2="392" y2="758" />
    <line x1="294" y1="744" x2="368" y2="40" />
    <line x1="342" y1="44" x2="442" y2="756" />
    <line x1="330" y1="46" x2="436" y2="758" />
    <line x1="392" y1="40" x2="300" y2="746" />
    <line x1="336" y1="44" x2="424" y2="758" />
    <line x1="362" y1="40" x2="362" y2="758" />
    <line x1="318" y1="750" x2="398" y2="40" />
    <line x1="386" y1="40" x2="306" y2="746" />
    <line x1="356" y1="42" x2="468" y2="752" />
    <line x1="418" y1="40" x2="406" y2="758" />
    <line x1="456" y1="754" x2="348" y2="42" />
    <line x1="374" y1="758" x2="374" y2="40" />
    <line x1="406" y1="40" x2="330" y2="752" />
    <line x1="380" y1="40" x2="294" y2="744" />
    <line x1="356" y1="756" x2="342" y2="44" />
    <line x1="368" y1="40" x2="324" y2="752" />
    <line x1="282" y1="740" x2="392" y2="40" />
    <line x1="418" y1="758" x2="336" y2="44" />
    <line x1="362" y1="40" x2="462" y2="754" />
    <line x1="56" y1="510" x2="758" y2="406" />
    <line x1="40" y1="424" x2="750" y2="480" />
    <line x1="442" y1="756" x2="356" y2="42" />
    <line x1="318" y1="48" x2="406" y2="758" />
    <line x1="348" y1="756" x2="418" y2="40" />
    <line x1="312" y1="50" x2="392" y2="758" />
    <line x1="374" y1="40" x2="312" y2="748" />
    <line x1="374" y1="758" x2="380" y2="40" />
    <line x1="752" y1="468" x2="52" y2="498" />
    <line x1="300" y1="52" x2="412" y2="758" />
    <line x1="368" y1="40" x2="456" y2="754" />
    <line x1="430" y1="40" x2="368" y2="758" />
    <line x1="450" y1="756" x2="342" y2="44" />
    <line x1="318" y1="750" x2="406" y2="40" />
    <line x1="740" y1="516" x2="40" y2="424" />
    <line x1="342" y1="754" x2="330" y2="46" />
    <line x1="336" y1="754" x2="442" y2="42" />
    <line x1="386" y1="40" x2="348" y2="756" />
    <line x1="392" y1="758" x2="362" y2="40" />
    <line x1="750" y1="480" x2="46" y2="474" />
    <line x1="398" y1="40" x2="424" y2="758" />
    <line x1="400" y1="760" x2="348" y2="42" />
    <line x1="282" y1="740" x2="380" y2="40" />
    <line x1="374" y1="40" x2="300" y2="746" />
    <line x1="52" y1="492" x2="752" y2="468" />
    <line x1="306" y1="746" x2="462" y2="44" />
    <line x1="412" y1="40" x2="380" y2="758" />
    <line x1="356" y1="42" x2="374" y2="758" />
    <line x1="342" y1="44" x2="480" y2="750" />
    <line x1="456" y1="754" x2="324" y2="46" />
    <line x1="386" y1="40" x2="294" y2="744" />
    <line x1="56" y1="510" x2="758" y2="392" />
    <line x1="40" y1="418" x2="740" y2="516" />
    <line x1="300" y1="52" x2="424" y2="758" />
    <line x1="462" y1="754" x2="348" y2="42" />
    <line x1="430" y1="40" x2="312" y2="748" />
    <line x1="386" y1="758" x2="312" y2="50" />
    <line x1="362" y1="40" x2="300" y2="746" />
    <line x1="348" y1="756" x2="336" y2="44" />
    <line x1="450" y1="42" x2="336" y2="754" />
    <line x1="450" y1="756" x2="374" y2="40" />
    <line x1="412" y1="758" x2="398" y2="40" />
    <line x1="342" y1="44" x2="374" y2="758" />
    <line x1="406" y1="40" x2="400" y2="760" />
    <line x1="456" y1="754" x2="356" y2="42" />
    <line x1="468" y1="46" x2="330" y2="752" />
    <line x1="356" y1="756" x2="318" y2="48" />
    <line x1="348" y1="42" x2="474" y2="752" />
    <line x1="312" y1="748" x2="418" y2="40" />
    <line x1="392" y1="40" x2="392" y2="758" />
  </g>
</svg>
