<svg xmlns="http://www.w3.org/2000/svg" width="600" height="600" viewBox="0 0 600 600">
  <g fill="none" stroke="black" stroke-width="1.5" stroke-linecap="round" stroke-linejoin="round">
    <line x1="570" y1="300" x2="75" y2="450" />
    <line x1="532" y1="435" x2="39" y2="374" />
    <line x1="430" y1="536" x2="216" y2="42" />
    <line x1="300" y1="570" x2="148" y2="75" />
    <line x1="165" y1="532" x2="225" y2="39" />
    <line x1="66" y1="435" x2="570" y2="300" />
    <line x1="30" y1="300" x2="570" y2="300" />
    <line x1="66" y1="164" x2="570" y2="300" />
    <line x1="168" y1="63" x2="382" y2="556" />
    <line x1="304" y1="30" x2="450" y2="524" />
    <line x1="438" y1="68" x2="364" y2="561" />
    <line x1="536" y1="168" x2="42" y2="382" />
    <line x1="570" y1="300" x2="74" y2="447" />
    <line x1="532" y1="435" x2="39" y2="369" />
    <line x1="430" y1="536" x2="220" y2="40" />
    <line x1="300" y1="570" x2="152" y2="74" />
    <line x1="165" y1="532" x2="230" y2="39" />
    <line x1="66" y1="435" x2="568" y2="304" />
    <line x1="30" y1="300" x2="568" y2="304" />
    <line x1="66" y1="164" x2="568" y2="304" />
    <line x1="168" y1="63" x2="378" y2="558" />
    <line x1="304" y1="30" x2="447" y2="525" />
    <line x1="438" y1="68" x2="360" y2="562" />
    <line x1="536" y1="168" x2="40" y2="378" />
    <line x1="564" y1="356" x2="34" y2="351" />
    <line x1="243" y1="34" x2="356" y2="564" />
    <line x1="342" y1="566" x2="234" y2="38" />
    <line x1="318" y1="568" x2="276" y2="30" />
    <line x1="346" y1="566" x2="230" y2="39" />
    <line x1="248" y1="34" x2="351" y2="564" />
    <line x1="280" y1="30" x2="243" y2="564" />
    <line x1="238" y1="36" x2="360" y2="562" />
    <line x1="567" y1="332" x2="39" y2="369" />
    <line x1="318" y1="30" x2="220" y2="558" />
    <line x1="338" y1="567" x2="243" y2="34" />
    <line x1="216" y1="556" x2="309" y2="30" />
    <line x1="276" y1="30" x2="314" y2="568" />
    <line x1="314" y1="30" x2="225" y2="560" />
    <line x1="322" y1="568" x2="272" y2="30" />
    <line x1="285" y1="30" x2="238" y2="562" />
    <line x1="252" y1="33" x2="346" y2="566" />
    <line x1="327" y1="568" x2="256" y2="33" />
    <line x1="220" y1="558" x2="298" y2="30" />
    <line x1="294" y1="30" x2="234" y2="561" />
    <line x1="338" y1="567" x2="234" y2="38" />
    <line x1="318" y1="568" x2="280" y2="30" />
    <line x1="216" y1="556" x2="304" y2="30" />
    <line x1="261" y1="32" x2="332" y2="567" />
    <line x1="558" y1="378" x2="30" y2="327" />
    <line x1="276" y1="30" x2="322" y2="568" />
    <line x1="252" y1="33" x2="342" y2="566" />
    <line x1="327" y1="30" x2="220" y2="558" />
    <line x1="298" y1="30" x2="234" y2="561" />
    <line x1="248" y1="34" x2="346" y2="566" />
    <line x1="318" y1="568" x2="272" y2="30" />
    <line x1="304" y1="30" x2="230" y2="560" />
    <line x1="327" y1="568" x2="261" y2="32" />
    <line x1="332" y1="567" x2="256" y2="33" />
    <line x1="238" y1="562" x2="280" y2="30" />
    <line x1="568" y1="318" x2="40" y2="378" />
    <line x1="327" y1="30" x2="216" y2="556" />
    <line x1="225" y1="560" x2="298" y2="30" />
    <line x1="342" y1="566" x2="230" y2="39" />
    <line x1="346" y1="566" x2="225" y2="39" />
    <line x1="220" y1="558" x2="304" y2="30" />
    <line x1="560" y1="369" x2="32" y2="338" />
    <line x1="261" y1="32" x2="338" y2="567" />
    <line x1="332" y1="567" x2="252" y2="33" />
    <line x1="309" y1="30" x2="234" y2="561" />
    <line x1="267" y1="32" x2="327" y2="568" />
    <line x1="225" y1="560" x2="294" y2="30" />
    <line x1="256" y1="33" x2="342" y2="566" />
    <line x1="243" y1="34" x2="360" y2="562" />
    <line x1="322" y1="30" x2="220" y2="558" />
    <line x1="30" y1="322" x2="560" y2="374" />
    <line x1="304" y1="568" x2="276" y2="30" />
    <line x1="238" y1="562" x2="285" y2="30" />
    <line x1="230" y1="560" x2="298" y2="30" />
    <line x1="34" y1="356" x2="567" y2="338" />
    <line x1="566" y1="342" x2="36" y2="360" />
    <line x1="272" y1="30" x2="261" y2="567" />
    <line x1="342" y1="566" x2="238" y2="36" />
    <line x1="256" y1="33" x2="338" y2="567" />
    <line x1="248" y1="34" x2="356" y2="564" />
    <line x1="30" y1="327" x2="560" y2="374" />
    <line x1="285" y1="30" x2="300" y2="570" />
    <line x1="230" y1="560" x2="290" y2="30" />
    <line x1="309" y1="30" x2="225" y2="560" />
    <line x1="33" y1="346" x2="566" y2="342" />
    <line x1="322" y1="568" x2="267" y2="32" />
    <line x1="220" y1="558" x2="294" y2="30" />
    <line x1="314" y1="568" x2="272" y2="30" />
    <line x1="327" y1="568" x2="248" y2="34" />
    <line x1="280" y1="30" x2="238" y2="562" />
    <line x1="30" y1="318" x2="560" y2="374" />
    <line x1="290" y1="30" x2="248" y2="564" />
    <line x1="39" y1="374" x2="568" y2="318" />
    <line x1="285" y1="30" x2="243" y2="564" />
    <line x1="34" y1="356" x2="568" y2="327" />
    <line x1="230" y1="560" x2="294" y2="30" />
    <line x1="256" y1="33" x2="346" y2="566" />
    <line x1="272" y1="30" x2="327" y2="568" />
    <line x1="322" y1="30" x2="225" y2="560" />
    <line x1="33" y1="346" x2="564" y2="356" />
    <line x1="276" y1="30" x2="318" y2="568" />
    <line x1="568" y1="322" x2="39" y2="374" />
    <line x1="248" y1="564" x2="285" y2="30" />
    <line x1="34" y1="351" x2="568" y2="327" />
    <line x1="294" y1="568" x2="290" y2="30" />
    <line x1="298" y1="30" x2="230" y2="560" />
    <line x1="39" y1="369" x2="568" y2="318" />
    <line x1="30" y1="318" x2="561" y2="364" />
    <line x1="338" y1="567" x2="248" y2="34" />
    <line x1="556" y1="382" x2="30" y2="322" />
    <line x1="272" y1="30" x2="322" y2="568" />
    <line x1="294" y1="30" x2="238" y2="562" />
    <line x1="564" y1="351" x2="32" y2="338" />
    <line x1="314" y1="568" x2="267" y2="32" />
    <line x1="225" y1="560" x2="290" y2="30" />
    <line x1="568" y1="322" x2="39" y2="369" />
    <line x1="298" y1="30" x2="243" y2="564" />
    <line x1="261" y1="32" x2="342" y2="566" />
    <line x1="39" y1="374" x2="568" y2="309" />
    <line x1="272" y1="30" x2="318" y2="568" />
    <line x1="568" y1="314" x2="42" y2="382" />
    <line x1="280" y1="30" x2="322" y2="568" />
    <line x1="309" y1="568" x2="267" y2="32" />
    <line x1="40" y1="378" x2="568" y2="294" />
    <line x1="290" y1="30" x2="238" y2="562" />
    <line x1="216" y1="556" x2="298" y2="30" />
    <line x1="332" y1="567" x2="243" y2="34" />
    <line x1="294" y1="30" x2="243" y2="564" />
    <line x1="30" y1="322" x2="558" y2="378" />
    <line x1="34" y1="351" x2="568" y2="322" />
    <line x1="322" y1="568" x2="261" y2="32" />
    <line x1="561" y1="364" x2="33" y2="342" />
    <line x1="252" y1="33" x2="351" y2="564" />
    <line x1="230" y1="560" x2="285" y2="30" />
    <line x1="276" y1="30" x2="261" y2="567" />
    <line x1="267" y1="32" x2="332" y2="567" />
    <line x1="234" y1="561" x2="290" y2="30" />
    <line x1="39" y1="374" x2="568" y2="304" />
    <line x1="30" y1="318" x2="558" y2="378" />
    <line x1="342" y1="566" x2="225" y2="39" />
    <line x1="33" y1="342" x2="566" y2="342" />
    <line x1="318" y1="568" x2="261" y2="32" />
    <line x1="314" y1="30" x2="230" y2="560" />
    <line x1="322" y1="568" x2="276" y2="30" />
    <line x1="272" y1="30" x2="332" y2="567" />
    <line x1="327" y1="568" x2="267" y2="32" />
    <line x1="234" y1="561" x2="285" y2="30" />
    <line x1="568" y1="314" x2="39" y2="374" />
    <line x1="32" y1="332" x2="566" y2="346" />
    <line x1="252" y1="566" x2="280" y2="30" />
    <line x1="567" y1="338" x2="38" y2="364" />
    <line x1="318" y1="30" x2="230" y2="560" />
    <line x1="318" y1="568" x2="256" y2="33" />
    <line x1="238" y1="562" x2="276" y2="30" />
    <line x1="272" y1="30" x2="314" y2="568" />
    <line x1="560" y1="374" x2="30" y2="314" />
    <line x1="243" y1="564" x2="285" y2="30" />
    <line x1="332" y1="567" x2="238" y2="36" />
    <line x1="267" y1="32" x2="322" y2="568" />
    <line x1="34" y1="351" x2="566" y2="346" />
    <line x1="30" y1="300" x2="556" y2="382" />
    <line x1="562" y1="360" x2="32" y2="338" />
    <line x1="276" y1="30" x2="327" y2="568" />
    <line x1="238" y1="562" x2="290" y2="30" />
    <line x1="30" y1="314" x2="558" y2="378" />
    <line x1="285" y1="30" x2="252" y2="566" />
    <line x1="560" y1="374" x2="32" y2="332" />
    <line x1="234" y1="561" x2="280" y2="30" />
    <line x1="568" y1="322" x2="34" y2="351" />
    <line x1="318" y1="568" x2="267" y2="32" />
    <line x1="34" y1="356" x2="566" y2="346" />
    <line x1="276" y1="30" x2="304" y2="568" />
    <line x1="568" y1="309" x2="39" y2="374" />
    <line x1="33" y1="342" x2="567" y2="338" />
    <line x1="225" y1="560" x2="285" y2="30" />
    <line x1="560" y1="374" x2="30" y2="322" />
    <line x1="314" y1="568" x2="280" y2="30" />
    <line x1="290" y1="30" x2="252" y2="566" />
    <line x1="267" y1="32" x2="338" y2="567" />
    <line x1="42" y1="382" x2="570" y2="300" />
    <line x1="276" y1="30" x2="243" y2="564" />
    <line x1="309" y1="30" x2="230" y2="560" />
    <line x1="216" y1="556" x2="294" y2="30" />
    <line x1="332" y1="32" x2="220" y2="558" />
    <line x1="32" y1="338" x2="567" y2="338" />
    <line x1="252" y1="33" x2="356" y2="564" />
    <line x1="285" y1="30" x2="318" y2="568" />
    <line x1="285" y1="568" x2="298" y2="30" />
    <line x1="40" y1="378" x2="568" y2="314" />
    <line x1="300" y1="570" x2="276" y2="30" />
    <line x1="267" y1="32" x2="267" y2="567" />
    <line x1="243" y1="564" x2="272" y2="30" />
    <line x1="304" y1="568" x2="280" y2="30" />
    <line x1="567" y1="332" x2="34" y2="356" />
    <line x1="243" y1="34" x2="351" y2="564" />
    <line x1="33" y1="342" x2="564" y2="351" />
    <line x1="290" y1="30" x2="234" y2="561" />
    <line x1="568" y1="322" x2="40" y2="378" />
    <line x1="252" y1="566" x2="276" y2="30" />
    <line x1="332" y1="567" x2="248" y2="34" />
    <line x1="322" y1="568" x2="252" y2="33" />
    <line x1="280" y1="30" x2="318" y2="568" />
    <line x1="261" y1="32" x2="346" y2="566" />
    <line x1="566" y1="342" x2="32" y2="338" />
    <line x1="556" y1="382" x2="30" y2="327" />
    <line x1="234" y1="561" x2="294" y2="30" />
    <line x1="261" y1="567" x2="272" y2="30" />
    <line x1="327" y1="568" x2="243" y2="34" />
    <line x1="220" y1="558" x2="290" y2="30" />
    <line x1="314" y1="568" x2="276" y2="30" />
    <line x1="309" y1="30" x2="238" y2="562" />
    <line x1="248" y1="34" x2="360" y2="562" />
    <line x1="243" y1="564" x2="280" y2="30" />
    <line x1="39" y1="374" x2="568" y2="322" />
    <line x1="566" y1="342" x2="33" y2="342" />
    <line x1="272" y1="30" x2="267" y2="567" />
    <line x1="30" y1="318" x2="556" y2="382" />
    <line x1="568" y1="314" x2="40" y2="378" />
    <line x1="285" y1="568" x2="294" y2="30" />
    <line x1="304" y1="30" x2="238" y2="562" />
    <line x1="234" y1="561" x2="276" y2="30" />
    <line x1="280" y1="30" x2="314" y2="568" />
    <line x1="243" y1="564" x2="267" y2="32" />
    <line x1="567" y1="338" x2="33" y2="342" />
    <line x1="42" y1="382" x2="568" y2="290" />
    <line x1="34" y1="356" x2="566" y2="342" />
    <line x1="290" y1="30" x2="294" y2="568" />
    <line x1="327" y1="568" x2="272" y2="30" />
    <line x1="318" y1="568" x2="252" y2="33" />
    <line x1="256" y1="33" x2="351" y2="564" />
    <line x1="276" y1="30" x2="332" y2="567" />
    <line x1="230" y1="560" x2="280" y2="30" />
    <line x1="44" y1="387" x2="570" y2="300" />
    <line x1="567" y1="338" x2="32" y2="338" />
    <line x1="30" y1="314" x2="556" y2="382" />
    <line x1="30" y1="327" x2="558" y2="378" />
    <line x1="294" y1="30" x2="294" y2="568" />
    <line x1="272" y1="30" x2="243" y2="564" />
    <line x1="256" y1="33" x2="276" y2="568" />
    <line x1="276" y1="30" x2="256" y2="566" />
    <line x1="248" y1="564" x2="280" y2="30" />
    <line x1="314" y1="30" x2="234" y2="561" />
    <line x1="568" y1="327" x2="39" y2="374" />
    <line x1="30" y1="309" x2="560" y2="374" />
    <line x1="560" y1="369" x2="30" y2="322" />
    <line x1="285" y1="30" x2="322" y2="568" />
    <line x1="290" y1="30" x2="314" y2="568" />
    <line x1="309" y1="568" x2="272" y2="30" />
    <line x1="243" y1="564" x2="276" y2="30" />
    <line x1="261" y1="32" x2="276" y2="568" />
    <line x1="30" y1="304" x2="556" y2="382" />
    <line x1="225" y1="560" x2="304" y2="30" />
    <line x1="327" y1="568" x2="252" y2="33" />
    <line x1="32" y1="332" x2="560" y2="369" />
    <line x1="318" y1="568" x2="285" y2="30" />
    <line x1="338" y1="567" x2="230" y2="39" />
    <line x1="280" y1="30" x2="309" y2="568" />
    <line x1="332" y1="567" x2="272" y2="30" />
    <line x1="261" y1="32" x2="322" y2="568" />
    <line x1="34" y1="351" x2="564" y2="356" />
    <line x1="298" y1="30" x2="248" y2="564" />
    <line x1="318" y1="30" x2="225" y2="560" />
    <line x1="276" y1="568" x2="304" y2="30" />
    <line x1="314" y1="568" x2="285" y2="30" />
    <line x1="32" y1="338" x2="564" y2="351" />
    <line x1="327" y1="568" x2="276" y2="30" />
    <line x1="272" y1="30" x2="338" y2="567" />
    <line x1="243" y1="564" x2="294" y2="30" />
    <line x1="30" y1="322" x2="564" y2="356" />
    <line x1="261" y1="32" x2="318" y2="568" />
    <line x1="327" y1="30" x2="225" y2="560" />
    <line x1="243" y1="34" x2="364" y2="561" />
    <line x1="558" y1="378" x2="32" y2="332" />
    <line x1="322" y1="568" x2="248" y2="34" />
    <line x1="276" y1="30" x2="309" y2="568" />
    <line x1="42" y1="382" x2="568" y2="285" />
    <line x1="238" y1="562" x2="272" y2="30" />
    <line x1="40" y1="378" x2="568" y2="309" />
    <line x1="314" y1="568" x2="261" y2="32" />
    <line x1="225" y1="560" x2="280" y2="30" />
    <line x1="261" y1="567" x2="267" y2="32" />
    <line x1="285" y1="30" x2="256" y2="566" />
    <line x1="556" y1="382" x2="30" y2="309" />
    <line x1="276" y1="30" x2="248" y2="564" />
    <line x1="558" y1="378" x2="30" y2="322" />
    <line x1="243" y1="564" x2="298" y2="30" />
    <line x1="568" y1="309" x2="42" y2="382" />
    <line x1="261" y1="32" x2="327" y2="568" />
    <line x1="322" y1="568" x2="280" y2="30" />
    <line x1="304" y1="568" x2="267" y2="32" />
    <line x1="309" y1="568" x2="285" y2="30" />
    <line x1="256" y1="566" x2="272" y2="30" />
    <line x1="276" y1="30" x2="300" y2="570" />
    <line x1="568" y1="304" x2="40" y2="378" />
    <line x1="30" y1="322" x2="556" y2="382" />
    <line x1="38" y1="364" x2="568" y2="309" />
    <line x1="42" y1="382" x2="568" y2="314" />
    <line x1="280" y1="30" x2="327" y2="568" />
    <line x1="238" y1="562" x2="267" y2="32" />
    <line x1="285" y1="30" x2="314" y2="568" />
    <line x1="290" y1="568" x2="294" y2="30" />
    <line x1="272" y1="30" x2="248" y2="564" />
    <line x1="40" y1="378" x2="570" y2="300" />
    <line x1="304" y1="30" x2="225" y2="560" />
    <line x1="332" y1="567" x2="276" y2="30" />
    <line x1="290" y1="30" x2="300" y2="570" />
    <line x1="314" y1="30" x2="220" y2="558" />
    <line x1="267" y1="32" x2="342" y2="566" />
    <line x1="238" y1="562" x2="309" y2="30" />
    <line x1="322" y1="568" x2="256" y2="33" />
    <line x1="234" y1="561" x2="272" y2="30" />
    <line x1="252" y1="33" x2="290" y2="568" />
    <line x1="338" y1="567" x2="261" y2="32" />
    <line x1="568" y1="318" x2="42" y2="382" />
    <line x1="216" y1="556" x2="290" y2="30" />
    <line x1="220" y1="558" x2="285" y2="30" />
    <line x1="267" y1="32" x2="318" y2="568" />
    <line x1="256" y1="566" x2="276" y2="30" />
    <line x1="32" y1="338" x2="566" y2="342" />
    <line x1="298" y1="30" x2="238" y2="562" />
    <line x1="564" y1="356" x2="32" y2="332" />
    <line x1="248" y1="564" x2="261" y2="32" />
    <line x1="280" y1="568" x2="294" y2="30" />
    <line x1="322" y1="30" x2="230" y2="560" />
    <line x1="294" y1="568" x2="280" y2="30" />
    <line x1="285" y1="30" x2="309" y2="568" />
    <line x1="338" y1="567" x2="272" y2="30" />
    <line x1="252" y1="33" x2="322" y2="568" />
    <line x1="276" y1="568" x2="256" y2="33" />
    <line x1="238" y1="562" x2="298" y2="30" />
    <line x1="290" y1="30" x2="256" y2="566" />
    <line x1="248" y1="564" x2="267" y2="32" />
    <line x1="230" y1="560" x2="276" y2="30" />
    <line x1="567" y1="338" x2="36" y2="360" />
    <line x1="32" y1="332" x2="561" y2="364" />
    <line x1="309" y1="568" x2="261" y2="32" />
    <line x1="252" y1="33" x2="327" y2="568" />
    <line x1="272" y1="30" x2="252" y2="566" />
    <line x1="42" y1="382" x2="568" y2="304" />
    <line x1="290" y1="30" x2="318" y2="568" />
    <line x1="30" y1="314" x2="560" y2="369" />
    <line x1="294" y1="30" x2="248" y2="564" />
    <line x1="568" y1="327" x2="34" y2="351" />
    <line x1="332" y1="567" x2="267" y2="32" />
    <line x1="300" y1="570" x2="285" y2="30" />
    <line x1="256" y1="33" x2="327" y2="568" />
    <line x1="304" y1="30" x2="234" y2="561" />
    <line x1="30" y1="327" x2="556" y2="382" />
    <line x1="314" y1="568" x2="290" y2="30" />
    <line x1="252" y1="33" x2="318" y2="568" />
    <line x1="568" y1="290" x2="42" y2="382" />
    <line x1="238" y1="562" x2="294" y2="30" />
    <line x1="332" y1="567" x2="234" y2="38" />
    <line x1="243" y1="564" x2="261" y2="32" />
    <line x1="267" y1="32" x2="248" y2="564" />
    <line x1="267" y1="567" x2="314" y2="30" />
    <line x1="220" y1="558" x2="309" y2="30" />
    <line x1="300" y1="570" x2="290" y2="30" />
    <line x1="256" y1="33" x2="318" y2="568" />
    <line x1="40" y1="378" x2="568" y2="290" />
    <line x1="568" y1="294" x2="42" y2="382" />
    <line x1="338" y1="567" x2="252" y2="33" />
    <line x1="261" y1="32" x2="351" y2="564" />
    <line x1="267" y1="32" x2="272" y2="568" />
    <line x1="280" y1="30" x2="332" y2="567" />
    <line x1="272" y1="30" x2="309" y2="568" />
    <line x1="238" y1="562" x2="304" y2="30" />
    <line x1="556" y1="382" x2="30" y2="314" />
    <line x1="570" y1="300" x2="44" y2="387" />
    <line x1="32" y1="332" x2="560" y2="374" />
    <line x1="252" y1="566" x2="252" y2="33" />
    <line x1="322" y1="30" x2="216" y2="556" />
    <line x1="338" y1="567" x2="267" y2="32" />
    <line x1="318" y1="568" x2="248" y2="34" />
    <line x1="276" y1="30" x2="272" y2="568" />
    <line x1="304" y1="30" x2="285" y2="568" />
    <line x1="332" y1="567" x2="261" y2="32" />
    <line x1="570" y1="300" x2="42" y2="382" />
    <line x1="248" y1="564" x2="272" y2="30" />
    <line x1="252" y1="566" x2="256" y2="33" />
    <line x1="280" y1="30" x2="234" y2="561" />
    <line x1="298" y1="30" x2="276" y2="568" />
    <line x1="252" y1="33" x2="338" y2="567" />
    <line x1="248" y1="34" x2="327" y2="568" />
    <line x1="267" y1="567" x2="267" y2="32" />
    <line x1="346" y1="566" x2="261" y2="32" />
    <line x1="42" y1="382" x2="568" y2="309" />
    <line x1="304" y1="30" x2="248" y2="564" />
    <line x1="272" y1="30" x2="272" y2="568" />
    <line x1="40" y1="378" x2="568" y2="322" />
    <line x1="556" y1="382" x2="30" y2="300" />
    <line x1="234" y1="561" x2="314" y2="30" />
    <line x1="256" y1="33" x2="332" y2="567" />
    <line x1="309" y1="568" x2="280" y2="30" />
    <line x1="225" y1="560" x2="276" y2="30" />
    <line x1="267" y1="567" x2="261" y2="32" />
  </g>
</svg>
