<svg xmlns="http://www.w3.org/2000/svg" width="400" height="400" viewBox="0 0 400 400">
  <g fill="none" stroke="black" stroke-width="1.0" stroke-linecap="round" stroke-linejoin="round">
    <line x1="380" y1="200" x2="50" y2="300" />
    <line x1="355" y1="290" x2="26" y2="249" />
    <line x1="287" y1="357" x2="144" y2="28" />
    <line x1="200" y1="380" x2="99" y2="50" />
    <line x1="110" y1="355" x2="150" y2="26" />
    <line x1="44" y1="290" x2="380" y2="200" />
    <line x1="20" y1="200" x2="380" y2="200" />
    <line x1="44" y1="109" x2="380" y2="200" />
    <line x1="112" y1="42" x2="255" y2="371" />
    <line x1="203" y1="20" x2="300" y2="349" />
    <line x1="292" y1="45" x2="243" y2="374" />
    <line x1="357" y1="112" x2="28" y2="255" />
    <line x1="380" y1="200" x2="49" y2="298" />
    <line x1="355" y1="290" x2="26" y2="246" />
    <line x1="287" y1="357" x2="147" y2="27" />
    <line x1="200" y1="380" x2="101" y2="49" />
    <line x1="110" y1="355" x2="153" y2="26" />
    <line x1="44" y1="290" x2="379" y2="203" />
    <line x1="20" y1="200" x2="379" y2="203" />
    <line x1="44" y1="109" x2="379" y2="203" />
    <line x1="112" y1="42" x2="252" y2="372" />
    <line x1="203" y1="20" x2="298" y2="350" />
    <line x1="292" y1="45" x2="240" y2="375" />
    <line x1="357" y1="112" x2="27" y2="252" />
    <line x1="234" y1="376" x2="159" y2="24" />
    <line x1="156" y1="25" x2="231" y2="377" />
    <line x1="159" y1="375" x2="190" y2="20" />
    <line x1="184" y1="20" x2="212" y2="379" />
    <line x1="237" y1="376" x2="159" y2="24" />
    <line x1="162" y1="23" x2="228" y2="377" />
    <line x1="376" y1="237" x2="23" y2="234" />
    <line x1="379" y1="212" x2="27" y2="252" />
    <line x1="20" y1="215" x2="372" y2="252" />
    <line x1="147" y1="372" x2="209" y2="20" />
    <line x1="228" y1="377" x2="165" y2="23" />
    <line x1="215" y1="20" x2="144" y2="371" />
    <line x1="162" y1="23" x2="234" y2="376" />
    <line x1="159" y1="375" x2="187" y2="20" />
    <line x1="181" y1="20" x2="212" y2="379" />
    <line x1="379" y1="209" x2="27" y2="252" />
    <line x1="375" y1="240" x2="22" y2="228" />
    <line x1="144" y1="371" x2="209" y2="20" />
    <line x1="20" y1="215" x2="373" y2="249" />
    <line x1="159" y1="24" x2="240" y2="375" />
    <line x1="206" y1="20" x2="147" y2="372" />
    <line x1="231" y1="377" x2="156" y2="25" />
    <line x1="215" y1="379" x2="184" y2="20" />
    <line x1="178" y1="21" x2="209" y2="379" />
    <line x1="206" y1="20" x2="144" y2="371" />
    <line x1="231" y1="377" x2="153" y2="26" />
    <line x1="373" y1="246" x2="21" y2="225" />
    <line x1="380" y1="200" x2="28" y2="255" />
    <line x1="147" y1="372" x2="212" y2="20" />
    <line x1="373" y1="249" x2="20" y2="212" />
    <line x1="156" y1="25" x2="234" y2="376" />
    <line x1="28" y1="255" x2="379" y2="193" />
    <line x1="20" y1="215" x2="371" y2="255" />
    <line x1="26" y1="246" x2="378" y2="221" />
    <line x1="165" y1="376" x2="193" y2="20" />
    <line x1="144" y1="371" x2="218" y2="20" />
    <line x1="231" y1="377" x2="165" y2="23" />
    <line x1="190" y1="20" x2="162" y2="376" />
    <line x1="162" y1="23" x2="237" y2="376" />
    <line x1="28" y1="255" x2="379" y2="203" />
    <line x1="209" y1="20" x2="147" y2="372" />
    <line x1="373" y1="249" x2="20" y2="209" />
    <line x1="379" y1="209" x2="26" y2="246" />
    <line x1="20" y1="203" x2="372" y2="252" />
    <line x1="379" y1="218" x2="23" y2="234" />
    <line x1="22" y1="231" x2="376" y2="234" />
    <line x1="156" y1="25" x2="237" y2="376" />
    <line x1="144" y1="371" x2="206" y2="20" />
    <line x1="231" y1="377" x2="159" y2="24" />
    <line x1="203" y1="20" x2="150" y2="373" />
    <line x1="209" y1="379" x2="181" y2="20" />
    <line x1="193" y1="20" x2="162" y2="376" />
    <line x1="378" y1="225" x2="24" y2="240" />
    <line x1="22" y1="228" x2="376" y2="234" />
    <line x1="153" y1="26" x2="231" y2="377" />
    <line x1="374" y1="243" x2="20" y2="212" />
    <line x1="144" y1="371" x2="203" y2="20" />
    <line x1="228" y1="377" x2="159" y2="24" />
    <line x1="28" y1="255" x2="379" y2="209" />
    <line x1="379" y1="203" x2="26" y2="249" />
    <line x1="203" y1="20" x2="147" y2="372" />
    <line x1="20" y1="209" x2="371" y2="255" />
    <line x1="184" y1="20" x2="203" y2="379" />
    <line x1="165" y1="376" x2="196" y2="20" />
    <line x1="231" y1="377" x2="162" y2="23" />
    <line x1="159" y1="24" x2="237" y2="376" />
    <line x1="218" y1="20" x2="144" y2="371" />
    <line x1="23" y1="234" x2="379" y2="215" />
    <line x1="147" y1="372" x2="206" y2="20" />
    <line x1="28" y1="255" x2="379" y2="206" />
    <line x1="379" y1="212" x2="26" y2="246" />
    <line x1="378" y1="221" x2="23" y2="234" />
    <line x1="206" y1="379" x2="178" y2="21" />
    <line x1="371" y1="255" x2="20" y2="212" />
    <line x1="20" y1="218" x2="372" y2="252" />
    <line x1="231" y1="377" x2="150" y2="26" />
    <line x1="212" y1="20" x2="144" y2="371" />
    <line x1="165" y1="23" x2="234" y2="376" />
    <line x1="193" y1="20" x2="165" y2="376" />
    <line x1="378" y1="225" x2="21" y2="225" />
    <line x1="147" y1="372" x2="218" y2="20" />
    <line x1="22" y1="231" x2="378" y2="221" />
    <line x1="212" y1="379" x2="184" y2="20" />
    <line x1="379" y1="215" x2="27" y2="252" />
    <line x1="225" y1="378" x2="165" y2="23" />
    <line x1="373" y1="246" x2="20" y2="215" />
    <line x1="20" y1="218" x2="371" y2="255" />
    <line x1="168" y1="22" x2="228" y2="377" />
    <line x1="203" y1="20" x2="144" y2="371" />
    <line x1="190" y1="20" x2="200" y2="380" />
    <line x1="26" y1="249" x2="379" y2="206" />
    <line x1="150" y1="373" x2="206" y2="20" />
    <line x1="209" y1="20" x2="144" y2="371" />
    <line x1="240" y1="375" x2="159" y2="24" />
    <line x1="168" y1="22" x2="225" y2="378" />
    <line x1="379" y1="206" x2="27" y2="252" />
    <line x1="20" y1="203" x2="371" y2="255" />
    <line x1="147" y1="372" x2="215" y2="20" />
    <line x1="215" y1="379" x2="187" y2="20" />
    <line x1="184" y1="20" x2="159" y2="375" />
    <line x1="373" y1="246" x2="21" y2="221" />
    <line x1="26" y1="246" x2="379" y2="203" />
    <line x1="23" y1="234" x2="376" y2="237" />
    <line x1="371" y1="255" x2="20" y2="200" />
    <line x1="240" y1="375" x2="162" y2="23" />
    <line x1="144" y1="371" x2="215" y2="20" />
    <line x1="156" y1="25" x2="228" y2="377" />
    <line x1="371" y1="255" x2="20" y2="206" />
    <line x1="196" y1="20" x2="147" y2="372" />
    <line x1="212" y1="379" x2="181" y2="20" />
    <line x1="190" y1="20" x2="159" y2="375" />
    <line x1="376" y1="234" x2="23" y2="234" />
    <line x1="225" y1="378" x2="156" y2="25" />
    <line x1="23" y1="237" x2="378" y2="221" />
    <line x1="159" y1="24" x2="228" y2="377" />
    <line x1="28" y1="255" x2="379" y2="190" />
    <line x1="379" y1="215" x2="26" y2="249" />
    <line x1="147" y1="372" x2="203" y2="20" />
    <line x1="20" y1="209" x2="373" y2="246" />
    <line x1="190" y1="20" x2="165" y2="376" />
    <line x1="174" y1="378" x2="184" y2="20" />
    <line x1="234" y1="376" x2="162" y2="23" />
    <line x1="199" y1="20" x2="147" y2="372" />
    <line x1="159" y1="24" x2="231" y2="377" />
    <line x1="379" y1="212" x2="26" y2="249" />
    <line x1="379" y1="215" x2="23" y2="234" />
    <line x1="144" y1="371" x2="212" y2="20" />
    <line x1="27" y1="252" x2="380" y2="200" />
    <line x1="178" y1="21" x2="206" y2="379" />
    <line x1="237" y1="376" x2="156" y2="25" />
    <line x1="199" y1="20" x2="144" y2="371" />
    <line x1="371" y1="255" x2="20" y2="209" />
    <line x1="212" y1="379" x2="187" y2="20" />
    <line x1="24" y1="240" x2="377" y2="231" />
    <line x1="165" y1="23" x2="237" y2="376" />
    <line x1="218" y1="20" x2="147" y2="372" />
    <line x1="21" y1="221" x2="372" y2="252" />
    <line x1="153" y1="373" x2="199" y2="20" />
    <line x1="237" y1="376" x2="162" y2="23" />
    <line x1="203" y1="379" x2="184" y2="20" />
    <line x1="181" y1="20" x2="209" y2="379" />
    <line x1="373" y1="249" x2="21" y2="221" />
    <line x1="21" y1="225" x2="376" y2="234" />
    <line x1="212" y1="20" x2="147" y2="372" />
    <line x1="27" y1="252" x2="379" y2="196" />
    <line x1="379" y1="209" x2="26" y2="249" />
    <line x1="162" y1="23" x2="231" y2="377" />
    <line x1="372" y1="252" x2="20" y2="215" />
    <line x1="203" y1="379" x2="178" y2="21" />
    <line x1="187" y1="20" x2="159" y2="375" />
    <line x1="20" y1="200" x2="371" y2="255" />
    <line x1="150" y1="373" x2="196" y2="20" />
    <line x1="215" y1="20" x2="147" y2="372" />
    <line x1="162" y1="23" x2="240" y2="375" />
    <line x1="379" y1="209" x2="28" y2="255" />
    <line x1="234" y1="376" x2="156" y2="25" />
    <line x1="23" y1="234" x2="379" y2="218" />
    <line x1="377" y1="228" x2="22" y2="228" />
    <line x1="28" y1="255" x2="379" y2="212" />
    <line x1="153" y1="373" x2="212" y2="20" />
    <line x1="150" y1="26" x2="231" y2="377" />
    <line x1="228" y1="377" x2="156" y2="25" />
    <line x1="371" y1="255" x2="20" y2="215" />
    <line x1="156" y1="374" x2="184" y2="20" />
    <line x1="190" y1="20" x2="171" y2="377" />
    <line x1="21" y1="225" x2="378" y2="225" />
    <line x1="20" y1="209" x2="372" y2="252" />
    <line x1="150" y1="373" x2="199" y2="20" />
    <line x1="27" y1="252" x2="379" y2="209" />
    <line x1="165" y1="23" x2="231" y2="377" />
    <line x1="377" y1="228" x2="21" y2="225" />
    <line x1="196" y1="20" x2="144" y2="371" />
    <line x1="162" y1="376" x2="190" y2="20" />
    <line x1="231" y1="377" x2="168" y2="22" />
    <line x1="181" y1="20" x2="174" y2="378" />
    <line x1="379" y1="203" x2="27" y2="252" />
    <line x1="228" y1="377" x2="150" y2="26" />
    <line x1="373" y1="249" x2="20" y2="215" />
    <line x1="147" y1="372" x2="196" y2="20" />
    <line x1="165" y1="23" x2="225" y2="378" />
    <line x1="171" y1="377" x2="193" y2="20" />
    <line x1="20" y1="218" x2="373" y2="249" />
    <line x1="184" y1="20" x2="200" y2="380" />
    <line x1="209" y1="20" x2="150" y2="373" />
    <line x1="25" y1="243" x2="376" y2="237" />
    <line x1="27" y1="252" x2="379" y2="193" />
    <line x1="375" y1="240" x2="22" y2="231" />
    <line x1="379" y1="206" x2="26" y2="246" />
    <line x1="225" y1="378" x2="162" y2="23" />
    <line x1="174" y1="21" x2="221" y2="378" />
    <line x1="150" y1="373" x2="203" y2="20" />
    <line x1="371" y1="255" x2="20" y2="203" />
    <line x1="221" y1="21" x2="147" y2="372" />
    <line x1="187" y1="20" x2="215" y2="379" />
    <line x1="159" y1="375" x2="184" y2="20" />
    <line x1="376" y1="237" x2="20" y2="215" />
    <line x1="20" y1="212" x2="373" y2="249" />
    <line x1="379" y1="206" x2="28" y2="255" />
    <line x1="221" y1="378" x2="171" y2="22" />
    <line x1="144" y1="371" x2="199" y2="20" />
    <line x1="206" y1="20" x2="150" y2="373" />
    <line x1="168" y1="22" x2="234" y2="376" />
    <line x1="26" y1="249" x2="379" y2="218" />
    <line x1="24" y1="240" x2="375" y2="240" />
    <line x1="184" y1="20" x2="174" y2="378" />
    <line x1="196" y1="379" x2="193" y2="20" />
    <line x1="380" y1="200" x2="29" y2="258" />
    <line x1="371" y1="255" x2="20" y2="218" />
    <line x1="234" y1="376" x2="165" y2="23" />
    <line x1="156" y1="25" x2="225" y2="378" />
    <line x1="147" y1="372" x2="199" y2="20" />
    <line x1="212" y1="20" x2="150" y2="373" />
    <line x1="20" y1="212" x2="374" y2="243" />
    <line x1="240" y1="375" x2="165" y2="23" />
    <line x1="26" y1="249" x2="377" y2="231" />
    <line x1="215" y1="379" x2="190" y2="20" />
    <line x1="181" y1="20" x2="156" y2="374" />
    <line x1="199" y1="20" x2="150" y2="373" />
    <line x1="374" y1="243" x2="21" y2="221" />
    <line x1="171" y1="22" x2="225" y2="378" />
    <line x1="372" y1="252" x2="20" y2="218" />
    <line x1="150" y1="373" x2="215" y2="20" />
    <line x1="28" y1="255" x2="380" y2="200" />
    <line x1="178" y1="21" x2="203" y2="379" />
    <line x1="193" y1="379" x2="196" y2="20" />
    <line x1="20" y1="212" x2="372" y2="252" />
    <line x1="380" y1="200" x2="26" y2="246" />
    <line x1="199" y1="20" x2="153" y2="373" />
    <line x1="376" y1="234" x2="25" y2="243" />
    <line x1="225" y1="378" x2="168" y2="22" />
    <line x1="21" y1="221" x2="376" y2="237" />
    <line x1="150" y1="26" x2="228" y2="377" />
    <line x1="153" y1="373" x2="190" y2="20" />
    <line x1="27" y1="252" x2="379" y2="215" />
    <line x1="373" y1="249" x2="20" y2="218" />
    <line x1="162" y1="376" x2="193" y2="20" />
    <line x1="187" y1="20" x2="196" y2="379" />
    <line x1="379" y1="193" x2="28" y2="255" />
    <line x1="144" y1="371" x2="196" y2="20" />
    <line x1="228" y1="377" x2="162" y2="23" />
    <line x1="171" y1="22" x2="231" y2="377" />
    <line x1="376" y1="237" x2="25" y2="243" />
    <line x1="196" y1="20" x2="153" y2="373" />
    <line x1="22" y1="228" x2="378" y2="225" />
    <line x1="20" y1="193" x2="374" y2="243" />
    <line x1="27" y1="252" x2="379" y2="212" />
    <line x1="168" y1="377" x2="196" y2="20" />
    <line x1="184" y1="20" x2="206" y2="379" />
    <line x1="150" y1="373" x2="209" y2="20" />
    <line x1="228" y1="377" x2="168" y2="22" />
    <line x1="162" y1="23" x2="225" y2="378" />
    <line x1="20" y1="215" x2="376" y2="237" />
    <line x1="196" y1="20" x2="150" y2="373" />
    <line x1="379" y1="215" x2="26" y2="246" />
    <line x1="378" y1="221" x2="26" y2="249" />
    <line x1="20" y1="193" x2="373" y2="246" />
    <line x1="196" y1="379" x2="190" y2="20" />
    <line x1="193" y1="20" x2="168" y2="377" />
    <line x1="168" y1="22" x2="231" y2="377" />
    <line x1="373" y1="246" x2="20" y2="212" />
    <line x1="237" y1="376" x2="165" y2="23" />
    <line x1="147" y1="372" x2="221" y2="21" />
    <line x1="203" y1="20" x2="153" y2="373" />
    <line x1="26" y1="246" x2="379" y2="209" />
    <line x1="237" y1="376" x2="168" y2="22" />
    <line x1="29" y1="258" x2="380" y2="200" />
    <line x1="178" y1="21" x2="200" y2="380" />
    <line x1="168" y1="377" x2="190" y2="20" />
    <line x1="159" y1="24" x2="225" y2="378" />
    <line x1="378" y1="225" x2="27" y2="252" />
    <line x1="147" y1="372" x2="193" y2="20" />
    <line x1="20" y1="181" x2="373" y2="246" />
    <line x1="372" y1="252" x2="20" y2="203" />
    <line x1="23" y1="237" x2="377" y2="228" />
    <line x1="193" y1="20" x2="150" y2="373" />
    <line x1="378" y1="174" x2="27" y2="252" />
  </g>
</svg>
